<?xml version="1.0" standalone="no"?>
<!DOCTYPE svg PUBLIC "-//W3C//DTD SVG 20010904//EN"
 "http://www.w3.org/TR/2001/REC-SVG-20010904/DTD/svg10.dtd">
<svg version="1.0" xmlns="http://www.w3.org/2000/svg"
 width="300.000000pt" height="300.000000pt" viewBox="0 0 300.000000 300.000000"
 preserveAspectRatio="xMidYMid meet">
<metadata>
Created by potrace 1.11, written by Peter Selinger 2001-2013
</metadata>
<g transform="translate(0.000000,300.000000) scale(0.100000,-0.100000)"
fill="#000000" stroke="none">
<path d="M0 1500 l0 -1500 299 0 298 0 7 63 c22 219 108 405 261 566 118 124
253 207 422 257 115 34 309 44 428 21 415 -79 734 -424 771 -833 l7 -74 253 0
254 0 0 1500 0 1500 -1500 0 -1500 0 0 -1500z m1122 1119 c91 -19 175 -65 247
-138 77 -77 114 -140 140 -243 11 -40 20 -61 20 -47 2 49 40 153 76 206 186
276 557 313 787 80 262 -265 153 -713 -202 -834 -36 -12 -63 -23 -60 -23 129
-11 186 -22 222 -42 62 -34 88 -78 88 -148 0 -72 -26 -114 -95 -149 -49 -26
-52 -26 -355 -31 -264 -5 -311 -8 -347 -24 -48 -20 -99 -73 -109 -112 -7 -25
-7 -25 -29 17 -12 24 -36 54 -55 67 -67 45 -117 52 -374 52 -133 0 -257 5
-277 10 -50 14 -99 49 -127 90 -20 29 -23 44 -20 93 7 98 74 155 194 165 75 6
90 17 37 27 -105 19 -254 136 -312 244 -108 203 -73 442 88 601 126 124 294
174 463 139z"/>
<path d="M1174 2250 c-34 -13 -64 -59 -64 -97 0 -107 115 -160 191 -87 92 88
-8 232 -127 184z"/>
<path d="M1774 2250 c-34 -13 -64 -59 -64 -97 0 -107 115 -160 191 -87 92 88
-8 232 -127 184z"/>
</g>
</svg>
