<?xml version="1.0" standalone="no"?>
<!DOCTYPE svg PUBLIC "-//W3C//DTD SVG 20010904//EN"
 "http://www.w3.org/TR/2001/REC-SVG-20010904/DTD/svg10.dtd">
<svg version="1.0" xmlns="http://www.w3.org/2000/svg"
 width="300.000000pt" height="300.000000pt" viewBox="0 0 300.000000 300.000000"
 preserveAspectRatio="xMidYMid meet">
<metadata>
Created by potrace 1.11, written by Peter Selinger 2001-2013
</metadata>
<g transform="translate(0.000000,300.000000) scale(0.100000,-0.100000)"
fill="#000000" stroke="none">
<path d="M1199 2909 c-18 -18 -20 -29 -16 -90 5 -66 4 -69 -19 -75 -13 -3 -28
-12 -35 -20 -16 -19 -3 -61 22 -75 23 -12 114 -14 161 -4 23 6 28 3 28 -13 0
-11 7 -25 16 -33 11 -9 15 -30 14 -78 -2 -104 -3 -101 43 -120 23 -11 53 -22
66 -26 l24 -7 -22 30 c-27 39 -27 54 5 92 59 70 196 143 291 156 58 7 60 9 35
23 -32 17 -60 18 -133 6 -63 -11 -122 -13 -204 -6 l-30 3 33 14 c17 8 32 16
32 18 0 2 -21 3 -47 2 l-48 -1 0 94 c0 85 -2 95 -24 112 -35 29 -163 27 -192
-2z m111 -211 c0 -7 -90 -1 -98 7 -2 2 19 3 47 2 28 -1 51 -5 51 -9z m55 3
c-9 -8 -36 -10 -30 -2 2 4 11 8 20 8 8 0 13 -3 10 -6z m83 -64 c4 -20 -25 -34
-39 -20 -14 14 1 45 20 41 9 -2 17 -11 19 -21z"/>
<path d="M1417 2644 c-8 -8 1 -24 14 -24 5 0 9 7 9 15 0 15 -12 20 -23 9z"/>
<path d="M1188 2578 c-4 -83 3 -151 26 -248 21 -91 24 -123 21 -235 -3 -71 -7
-146 -10 -165 -3 -19 -11 -62 -16 -95 -6 -33 -39 -172 -74 -310 -55 -217 -87
-373 -111 -545 -4 -25 -7 -137 -8 -250 -1 -124 -7 -215 -13 -231 -9 -21 -128
-201 -191 -289 -11 -16 -10 -18 17 -22 47 -7 95 15 156 71 58 53 108 74 137
60 22 -12 28 -34 29 -110 0 -84 5 -96 39 -114 23 -12 56 -14 162 -10 73 3 146
9 162 13 27 7 24 10 -45 30 -41 11 -102 23 -136 26 -34 2 -66 7 -71 10 -10 6
-8 100 2 133 9 28 34 33 97 18 30 -7 65 -16 79 -19 17 -3 53 -39 104 -102 l79
-96 46 4 c25 3 109 22 186 44 112 31 134 40 110 44 -36 7 -105 5 -200 -3 l-70
-7 -39 51 c-21 27 -41 48 -43 45 -8 -8 -73 21 -110 50 -91 69 -194 359 -196
554 -1 86 5 137 27 235 16 70 101 336 117 366 6 13 18 14 71 8 72 -9 208 -36
216 -43 4 -5 -26 -126 -78 -316 -10 -36 -38 -132 -63 -215 -64 -210 -79 -272
-79 -331 -1 -54 28 -182 45 -199 6 -7 7 -1 3 15 -4 14 -12 45 -19 70 -23 86
-14 155 45 335 17 50 31 95 32 100 2 6 13 42 25 80 13 39 47 156 76 260 37
132 58 189 67 187 7 -1 45 -14 85 -28 83 -30 150 -83 191 -152 l27 -47 1 -500
c1 -275 2 -503 3 -507 0 -5 10 -8 21 -8 20 0 20 7 20 438 0 410 1 443 20 496
19 55 22 168 6 236 -27 115 -129 221 -303 315 -37 20 -53 35 -54 49 -10 223
-68 401 -168 510 -22 25 -23 28 -6 21 49 -19 55 -18 56 6 0 13 2 33 5 44 2 11
1 32 -2 48 l-6 27 -57 -30 -58 -31 -49 25 c-34 17 -51 21 -56 13 -4 -6 -4 -15
-2 -19 3 -4 0 -8 -6 -8 -7 0 -10 6 -7 14 4 10 -5 16 -31 21 -51 9 -88 30 -127
72 -33 35 -85 128 -85 151 0 6 -4 14 -10 17 -6 4 -11 -8 -12 -27z m280 -299
c-3 -20 -5 -19 -9 9 -3 20 -2 29 4 23 5 -5 7 -19 5 -32z m147 -26 c62 -70 134
-235 150 -348 3 -16 7 -65 10 -108 l6 -78 -33 17 c-191 98 -238 171 -243 382
l-3 122 36 25 c20 14 38 25 40 25 2 0 19 -17 37 -37z"/>
<path d="M1570 365 c0 -5 5 -17 10 -25 5 -8 10 -10 10 -5 0 6 -5 17 -10 25 -5
8 -10 11 -10 5z"/>
</g>
</svg>
