<?xml version="1.0" standalone="no"?>
<!DOCTYPE svg PUBLIC "-//W3C//DTD SVG 20010904//EN"
 "http://www.w3.org/TR/2001/REC-SVG-20010904/DTD/svg10.dtd">
<svg version="1.0" xmlns="http://www.w3.org/2000/svg"
 width="283.000000pt" height="283.000000pt" viewBox="0 0 283.000000 283.000000"
 preserveAspectRatio="xMidYMid meet">
<metadata>
Created by potrace 1.11, written by Peter Selinger 2001-2013
</metadata>
<g transform="translate(0.000000,283.000000) scale(0.100000,-0.100000)"
fill="#000000" stroke="none">
<path d="M1210 2789 c-107 -22 -275 -55 -374 -74 -98 -18 -179 -35 -181 -37
-4 -4 -11 -57 -40 -318 -24 -217 -30 -265 -40 -340 -3 -19 -8 -62 -11 -95 -3
-33 -7 -67 -9 -75 -17 -92 -15 -161 5 -245 62 -262 143 -604 194 -825 25 -107
77 -325 115 -485 l68 -290 488 -3 c443 -2 490 -1 507 14 15 14 42 17 185 16
l167 -1 -52 52 -52 53 51 72 51 73 -7 77 c-3 42 -8 93 -10 112 -2 19 -6 73
-10 120 -3 47 -8 101 -10 120 -2 19 -7 62 -10 95 -2 33 -7 85 -9 115 -3 30
-10 111 -16 180 -6 69 -12 143 -15 165 -2 22 -7 74 -10 114 l-7 75 -384 385
c-211 212 -384 388 -384 391 0 3 54 75 120 160 79 102 136 166 168 187 26 18
52 37 59 43 7 5 16 10 20 10 4 0 19 9 33 20 l25 20 -70 -1 c-38 0 -100 0 -136
0 l-65 1 -60 80 c-40 54 -65 79 -79 78 -11 0 -108 -18 -215 -39z"/>
</g>
</svg>
